<mxfile host="Electron" agent="Mozilla/5.0 (Windows NT 10.0; Win64; x64) AppleWebKit/537.36 (KHTML, like Gecko) draw.io/24.7.8 Chrome/128.0.6613.36 Electron/32.0.1 Safari/537.36" version="24.7.8" pages="5">
  <diagram name="HOME TABLETTE" id="dngWVbScQj7BCc4aemoy">
    <mxGraphModel dx="1434" dy="836" grid="1" gridSize="10" guides="1" tooltips="1" connect="1" arrows="1" fold="1" page="1" pageScale="1" pageWidth="1100" pageHeight="850" background="#ffffff" math="0" shadow="0">
      <root>
        <mxCell id="S9zxwbxMwQSz9-cdmBtY-0" />
        <mxCell id="S9zxwbxMwQSz9-cdmBtY-1" parent="S9zxwbxMwQSz9-cdmBtY-0" />
        <mxCell id="S9zxwbxMwQSz9-cdmBtY-2" value="" style="whiteSpace=wrap;html=1;rounded=0;shadow=0;labelBackgroundColor=none;strokeWidth=1;fillColor=none;fontFamily=Verdana;fontSize=12;align=center;comic=1;" parent="S9zxwbxMwQSz9-cdmBtY-1" vertex="1">
          <mxGeometry x="30" y="115" width="1040" height="50" as="geometry" />
        </mxCell>
        <mxCell id="S9zxwbxMwQSz9-cdmBtY-3" value="" style="whiteSpace=wrap;html=1;rounded=0;shadow=0;labelBackgroundColor=none;strokeColor=#000000;strokeWidth=1;fillColor=none;fontFamily=Verdana;fontSize=12;fontColor=#000000;align=center;comic=1;" parent="S9zxwbxMwQSz9-cdmBtY-1" vertex="1">
          <mxGeometry x="20" y="20" width="1060" height="810" as="geometry" />
        </mxCell>
        <mxCell id="S9zxwbxMwQSz9-cdmBtY-4" value="LOGO" style="whiteSpace=wrap;html=1;rounded=0;shadow=0;labelBackgroundColor=none;strokeWidth=1;fontFamily=Verdana;fontSize=28;align=center;comic=1;" parent="S9zxwbxMwQSz9-cdmBtY-1" vertex="1">
          <mxGeometry x="50" y="40" width="190" height="50" as="geometry" />
        </mxCell>
        <mxCell id="S9zxwbxMwQSz9-cdmBtY-5" value="accueil" style="text;html=1;points=[];align=left;verticalAlign=top;spacingTop=-4;fontSize=14;fontFamily=Verdana" parent="S9zxwbxMwQSz9-cdmBtY-1" vertex="1">
          <mxGeometry x="230" y="130" width="60" height="20" as="geometry" />
        </mxCell>
        <mxCell id="S9zxwbxMwQSz9-cdmBtY-6" value="nom du site" style="text;html=1;points=[];align=left;verticalAlign=top;spacingTop=-4;fontSize=14;fontFamily=Verdana" parent="S9zxwbxMwQSz9-cdmBtY-1" vertex="1">
          <mxGeometry x="417" y="50" width="123" height="25" as="geometry" />
        </mxCell>
        <mxCell id="S9zxwbxMwQSz9-cdmBtY-7" value="" style="whiteSpace=wrap;html=1;rounded=0;shadow=0;labelBackgroundColor=none;strokeWidth=1;fillColor=none;fontFamily=Verdana;fontSize=12;align=center;comic=1;" parent="S9zxwbxMwQSz9-cdmBtY-1" vertex="1">
          <mxGeometry x="30" y="230" width="200" height="590" as="geometry" />
        </mxCell>
        <mxCell id="S9zxwbxMwQSz9-cdmBtY-8" value="NAV" style="text;html=1;points=[];align=left;verticalAlign=top;spacingTop=-4;fontSize=14;fontFamily=Verdana" parent="S9zxwbxMwQSz9-cdmBtY-1" vertex="1">
          <mxGeometry x="50" y="130" width="60" height="20" as="geometry" />
        </mxCell>
        <mxCell id="S9zxwbxMwQSz9-cdmBtY-9" value="bibliothÃ¨que" style="text;html=1;points=[];align=left;verticalAlign=top;spacingTop=-4;fontSize=14;fontFamily=Verdana" parent="S9zxwbxMwQSz9-cdmBtY-1" vertex="1">
          <mxGeometry x="330" y="130" width="100" height="20" as="geometry" />
        </mxCell>
        <mxCell id="S9zxwbxMwQSz9-cdmBtY-10" value="sheet" style="text;html=1;points=[];align=left;verticalAlign=top;spacingTop=-4;fontSize=14;fontFamily=Verdana" parent="S9zxwbxMwQSz9-cdmBtY-1" vertex="1">
          <mxGeometry x="448.5" y="130" width="60" height="20" as="geometry" />
        </mxCell>
        <mxCell id="S9zxwbxMwQSz9-cdmBtY-11" value="profil" style="text;html=1;points=[];align=left;verticalAlign=top;spacingTop=-4;fontSize=14;fontFamily=Verdana" parent="S9zxwbxMwQSz9-cdmBtY-1" vertex="1">
          <mxGeometry x="840" y="130" width="60" height="20" as="geometry" />
        </mxCell>
        <mxCell id="S9zxwbxMwQSz9-cdmBtY-12" value="" style="verticalLabelPosition=bottom;shadow=0;dashed=0;align=center;html=1;verticalAlign=top;strokeWidth=1;shape=mxgraph.mockup.graphics.simpleIcon;strokeColor=#999999;rounded=0;labelBackgroundColor=none;fontFamily=Verdana;fontSize=14;fontColor=#000000;comic=1;" parent="S9zxwbxMwQSz9-cdmBtY-1" vertex="1">
          <mxGeometry x="250" y="230" width="580" height="590" as="geometry" />
        </mxCell>
        <mxCell id="S9zxwbxMwQSz9-cdmBtY-13" value="" style="whiteSpace=wrap;html=1;rounded=0;shadow=0;labelBackgroundColor=none;strokeWidth=1;fillColor=none;fontFamily=Verdana;fontSize=12;align=center;comic=1;" parent="S9zxwbxMwQSz9-cdmBtY-1" vertex="1">
          <mxGeometry x="840" y="230" width="230" height="590" as="geometry" />
        </mxCell>
        <mxCell id="S9zxwbxMwQSz9-cdmBtY-14" value="Section 1" style="text;html=1;points=[];align=left;verticalAlign=top;spacingTop=-4;fontSize=14;fontFamily=Verdana" parent="S9zxwbxMwQSz9-cdmBtY-1" vertex="1">
          <mxGeometry x="40" y="250" width="170" height="20" as="geometry" />
        </mxCell>
        <mxCell id="S9zxwbxMwQSz9-cdmBtY-15" value="Section 2" style="text;html=1;points=[];align=left;verticalAlign=top;spacingTop=-4;fontSize=14;fontFamily=Verdana" parent="S9zxwbxMwQSz9-cdmBtY-1" vertex="1">
          <mxGeometry x="40" y="286" width="170" height="20" as="geometry" />
        </mxCell>
        <mxCell id="S9zxwbxMwQSz9-cdmBtY-16" value="Section 3" style="text;html=1;points=[];align=left;verticalAlign=top;spacingTop=-4;fontSize=14;fontFamily=Verdana" parent="S9zxwbxMwQSz9-cdmBtY-1" vertex="1">
          <mxGeometry x="40" y="321" width="170" height="20" as="geometry" />
        </mxCell>
        <mxCell id="S9zxwbxMwQSz9-cdmBtY-17" value="Section 4" style="text;html=1;points=[];align=left;verticalAlign=top;spacingTop=-4;fontSize=14;fontFamily=Verdana" parent="S9zxwbxMwQSz9-cdmBtY-1" vertex="1">
          <mxGeometry x="40" y="357" width="170" height="20" as="geometry" />
        </mxCell>
        <mxCell id="S9zxwbxMwQSz9-cdmBtY-18" value="Section 7" style="text;html=1;points=[];align=left;verticalAlign=top;spacingTop=-4;fontSize=14;fontFamily=Verdana" parent="S9zxwbxMwQSz9-cdmBtY-1" vertex="1">
          <mxGeometry x="40" y="464" width="170" height="20" as="geometry" />
        </mxCell>
        <mxCell id="S9zxwbxMwQSz9-cdmBtY-19" value="Section 8" style="text;html=1;points=[];align=left;verticalAlign=top;spacingTop=-4;fontSize=14;fontFamily=Verdana" parent="S9zxwbxMwQSz9-cdmBtY-1" vertex="1">
          <mxGeometry x="40" y="500" width="170" height="20" as="geometry" />
        </mxCell>
        <mxCell id="S9zxwbxMwQSz9-cdmBtY-20" value="Section 9" style="text;html=1;points=[];align=left;verticalAlign=top;spacingTop=-4;fontSize=14;fontFamily=Verdana" parent="S9zxwbxMwQSz9-cdmBtY-1" vertex="1">
          <mxGeometry x="40" y="536" width="170" height="20" as="geometry" />
        </mxCell>
        <mxCell id="S9zxwbxMwQSz9-cdmBtY-21" value="Section 10" style="text;html=1;points=[];align=left;verticalAlign=top;spacingTop=-4;fontSize=14;fontFamily=Verdana" parent="S9zxwbxMwQSz9-cdmBtY-1" vertex="1">
          <mxGeometry x="40" y="571" width="170" height="20" as="geometry" />
        </mxCell>
        <mxCell id="S9zxwbxMwQSz9-cdmBtY-22" value="Section 11" style="text;html=1;points=[];align=left;verticalAlign=top;spacingTop=-4;fontSize=14;fontFamily=Verdana" parent="S9zxwbxMwQSz9-cdmBtY-1" vertex="1">
          <mxGeometry x="40" y="607" width="170" height="20" as="geometry" />
        </mxCell>
        <mxCell id="S9zxwbxMwQSz9-cdmBtY-23" value="Section 12" style="text;html=1;points=[];align=left;verticalAlign=top;spacingTop=-4;fontSize=14;fontFamily=Verdana" parent="S9zxwbxMwQSz9-cdmBtY-1" vertex="1">
          <mxGeometry x="40" y="643" width="170" height="20" as="geometry" />
        </mxCell>
        <mxCell id="S9zxwbxMwQSz9-cdmBtY-24" value="Section 13" style="text;html=1;points=[];align=left;verticalAlign=top;spacingTop=-4;fontSize=14;fontFamily=Verdana" parent="S9zxwbxMwQSz9-cdmBtY-1" vertex="1">
          <mxGeometry x="40" y="679" width="170" height="20" as="geometry" />
        </mxCell>
        <mxCell id="S9zxwbxMwQSz9-cdmBtY-25" value="Section 14" style="text;html=1;points=[];align=left;verticalAlign=top;spacingTop=-4;fontSize=14;fontFamily=Verdana" parent="S9zxwbxMwQSz9-cdmBtY-1" vertex="1">
          <mxGeometry x="40" y="714" width="170" height="20" as="geometry" />
        </mxCell>
        <mxCell id="S9zxwbxMwQSz9-cdmBtY-26" value="Section 5" style="text;html=1;points=[];align=left;verticalAlign=top;spacingTop=-4;fontSize=14;fontFamily=Verdana" parent="S9zxwbxMwQSz9-cdmBtY-1" vertex="1">
          <mxGeometry x="40" y="393" width="170" height="20" as="geometry" />
        </mxCell>
        <mxCell id="S9zxwbxMwQSz9-cdmBtY-27" value="Section 6" style="text;html=1;points=[];align=left;verticalAlign=top;spacingTop=-4;fontSize=14;fontFamily=Verdana" parent="S9zxwbxMwQSz9-cdmBtY-1" vertex="1">
          <mxGeometry x="40" y="429" width="170" height="20" as="geometry" />
        </mxCell>
        <mxCell id="S9zxwbxMwQSz9-cdmBtY-28" value="Section 15" style="text;html=1;points=[];align=left;verticalAlign=top;spacingTop=-4;fontSize=14;fontFamily=Verdana" parent="S9zxwbxMwQSz9-cdmBtY-1" vertex="1">
          <mxGeometry x="40" y="750" width="170" height="20" as="geometry" />
        </mxCell>
        <mxCell id="S9zxwbxMwQSz9-cdmBtY-29" value="Feature 1" style="text;html=1;points=[];align=left;verticalAlign=top;spacingTop=-4;fontSize=14;fontFamily=Verdana" parent="S9zxwbxMwQSz9-cdmBtY-1" vertex="1">
          <mxGeometry x="860" y="250" width="170" height="20" as="geometry" />
        </mxCell>
        <mxCell id="S9zxwbxMwQSz9-cdmBtY-30" value="Feature 2" style="text;html=1;points=[];align=left;verticalAlign=top;spacingTop=-4;fontSize=14;fontFamily=Verdana" parent="S9zxwbxMwQSz9-cdmBtY-1" vertex="1">
          <mxGeometry x="860" y="285" width="170" height="20" as="geometry" />
        </mxCell>
        <mxCell id="S9zxwbxMwQSz9-cdmBtY-31" value="Feature 3" style="text;html=1;points=[];align=left;verticalAlign=top;spacingTop=-4;fontSize=14;fontFamily=Verdana" parent="S9zxwbxMwQSz9-cdmBtY-1" vertex="1">
          <mxGeometry x="860" y="320" width="170" height="20" as="geometry" />
        </mxCell>
        <mxCell id="S9zxwbxMwQSz9-cdmBtY-32" value="Feature 4" style="text;html=1;points=[];align=left;verticalAlign=top;spacingTop=-4;fontSize=14;fontFamily=Verdana" parent="S9zxwbxMwQSz9-cdmBtY-1" vertex="1">
          <mxGeometry x="860" y="355" width="170" height="20" as="geometry" />
        </mxCell>
        <mxCell id="S9zxwbxMwQSz9-cdmBtY-33" value="Feature 5" style="text;html=1;points=[];align=left;verticalAlign=top;spacingTop=-4;fontSize=14;fontFamily=Verdana" parent="S9zxwbxMwQSz9-cdmBtY-1" vertex="1">
          <mxGeometry x="860" y="390" width="170" height="20" as="geometry" />
        </mxCell>
        <mxCell id="S9zxwbxMwQSz9-cdmBtY-34" value="Feature 6" style="text;html=1;points=[];align=left;verticalAlign=top;spacingTop=-4;fontSize=14;fontFamily=Verdana" parent="S9zxwbxMwQSz9-cdmBtY-1" vertex="1">
          <mxGeometry x="860" y="425" width="170" height="20" as="geometry" />
        </mxCell>
        <mxCell id="S9zxwbxMwQSz9-cdmBtY-35" value="connection" style="text;html=1;points=[];align=left;verticalAlign=top;spacingTop=-4;fontSize=14;fontFamily=Verdana" parent="S9zxwbxMwQSz9-cdmBtY-1" vertex="1">
          <mxGeometry x="545" y="130" width="90" height="20" as="geometry" />
        </mxCell>
        <mxCell id="S9zxwbxMwQSz9-cdmBtY-36" value="inscription" style="text;html=1;points=[];align=left;verticalAlign=top;spacingTop=-4;fontSize=14;fontFamily=Verdana" parent="S9zxwbxMwQSz9-cdmBtY-1" vertex="1">
          <mxGeometry x="650" y="130" width="90" height="20" as="geometry" />
        </mxCell>
        <mxCell id="S9zxwbxMwQSz9-cdmBtY-37" value="" style="edgeStyle=orthogonalEdgeStyle;rounded=0;orthogonalLoop=1;jettySize=auto;html=1;" parent="S9zxwbxMwQSz9-cdmBtY-1" source="S9zxwbxMwQSz9-cdmBtY-38" target="S9zxwbxMwQSz9-cdmBtY-39" edge="1">
          <mxGeometry relative="1" as="geometry" />
        </mxCell>
        <mxCell id="S9zxwbxMwQSz9-cdmBtY-38" value="" style="rounded=0;whiteSpace=wrap;html=1;fillColor=none;" parent="S9zxwbxMwQSz9-cdmBtY-1" vertex="1">
          <mxGeometry x="530" y="120" width="210" height="40" as="geometry" />
        </mxCell>
        <mxCell id="S9zxwbxMwQSz9-cdmBtY-39" value="" style="rounded=0;whiteSpace=wrap;html=1;fillColor=none;" parent="S9zxwbxMwQSz9-cdmBtY-1" vertex="1">
          <mxGeometry x="820" y="120" width="210" height="40" as="geometry" />
        </mxCell>
        <mxCell id="S9zxwbxMwQSz9-cdmBtY-40" value="logout" style="text;html=1;points=[];align=left;verticalAlign=top;spacingTop=-4;fontSize=14;fontFamily=Verdana" parent="S9zxwbxMwQSz9-cdmBtY-1" vertex="1">
          <mxGeometry x="925" y="130" width="60" height="20" as="geometry" />
        </mxCell>
        <mxCell id="S9zxwbxMwQSz9-cdmBtY-41" value="HOME DESKTOP" style="rounded=0;whiteSpace=wrap;html=1;" parent="S9zxwbxMwQSz9-cdmBtY-1" vertex="1">
          <mxGeometry x="980" width="120" height="40" as="geometry" />
        </mxCell>
      </root>
    </mxGraphModel>
  </diagram>
  <diagram name="BIBLIOTHEQUE TABLET" id="wvuSwLXwqVXHczwIanFs">
    <mxGraphModel dx="1434" dy="836" grid="1" gridSize="10" guides="1" tooltips="1" connect="1" arrows="1" fold="1" page="1" pageScale="1" pageWidth="1100" pageHeight="850" background="#ffffff" math="0" shadow="0">
      <root>
        <mxCell id="QorS9l2jVIr0KILkPKL6-0" />
        <mxCell id="QorS9l2jVIr0KILkPKL6-1" parent="QorS9l2jVIr0KILkPKL6-0" />
        <mxCell id="QorS9l2jVIr0KILkPKL6-2" value="" style="whiteSpace=wrap;html=1;rounded=0;shadow=0;labelBackgroundColor=none;strokeWidth=1;fillColor=none;fontFamily=Verdana;fontSize=12;align=center;comic=1;" vertex="1" parent="QorS9l2jVIr0KILkPKL6-1">
          <mxGeometry x="30" y="115" width="1040" height="50" as="geometry" />
        </mxCell>
        <mxCell id="QorS9l2jVIr0KILkPKL6-3" value="" style="whiteSpace=wrap;html=1;rounded=0;shadow=0;labelBackgroundColor=none;strokeColor=#000000;strokeWidth=1;fillColor=none;fontFamily=Verdana;fontSize=12;fontColor=#000000;align=center;comic=1;" vertex="1" parent="QorS9l2jVIr0KILkPKL6-1">
          <mxGeometry x="20" y="20" width="1060" height="810" as="geometry" />
        </mxCell>
        <mxCell id="QorS9l2jVIr0KILkPKL6-4" value="LOGO" style="whiteSpace=wrap;html=1;rounded=0;shadow=0;labelBackgroundColor=none;strokeWidth=1;fontFamily=Verdana;fontSize=28;align=center;comic=1;" vertex="1" parent="QorS9l2jVIr0KILkPKL6-1">
          <mxGeometry x="50" y="40" width="190" height="50" as="geometry" />
        </mxCell>
        <mxCell id="QorS9l2jVIr0KILkPKL6-5" value="accueil" style="text;html=1;points=[];align=left;verticalAlign=top;spacingTop=-4;fontSize=14;fontFamily=Verdana" vertex="1" parent="QorS9l2jVIr0KILkPKL6-1">
          <mxGeometry x="230" y="130" width="60" height="20" as="geometry" />
        </mxCell>
        <mxCell id="QorS9l2jVIr0KILkPKL6-6" value="nom du site" style="text;html=1;points=[];align=left;verticalAlign=top;spacingTop=-4;fontSize=14;fontFamily=Verdana" vertex="1" parent="QorS9l2jVIr0KILkPKL6-1">
          <mxGeometry x="417" y="50" width="123" height="25" as="geometry" />
        </mxCell>
        <mxCell id="QorS9l2jVIr0KILkPKL6-7" value="" style="whiteSpace=wrap;html=1;rounded=0;shadow=0;labelBackgroundColor=none;strokeWidth=1;fillColor=none;fontFamily=Verdana;fontSize=12;align=center;comic=1;" vertex="1" parent="QorS9l2jVIr0KILkPKL6-1">
          <mxGeometry x="30" y="230" width="200" height="590" as="geometry" />
        </mxCell>
        <mxCell id="QorS9l2jVIr0KILkPKL6-8" value="NAV" style="text;html=1;points=[];align=left;verticalAlign=top;spacingTop=-4;fontSize=14;fontFamily=Verdana" vertex="1" parent="QorS9l2jVIr0KILkPKL6-1">
          <mxGeometry x="50" y="130" width="60" height="20" as="geometry" />
        </mxCell>
        <mxCell id="QorS9l2jVIr0KILkPKL6-9" value="bibliothÃ¨que" style="text;html=1;points=[];align=left;verticalAlign=top;spacingTop=-4;fontSize=14;fontFamily=Verdana" vertex="1" parent="QorS9l2jVIr0KILkPKL6-1">
          <mxGeometry x="330" y="130" width="100" height="20" as="geometry" />
        </mxCell>
        <mxCell id="QorS9l2jVIr0KILkPKL6-10" value="sheet" style="text;html=1;points=[];align=left;verticalAlign=top;spacingTop=-4;fontSize=14;fontFamily=Verdana" vertex="1" parent="QorS9l2jVIr0KILkPKL6-1">
          <mxGeometry x="448.5" y="130" width="60" height="20" as="geometry" />
        </mxCell>
        <mxCell id="QorS9l2jVIr0KILkPKL6-11" value="profil" style="text;html=1;points=[];align=left;verticalAlign=top;spacingTop=-4;fontSize=14;fontFamily=Verdana" vertex="1" parent="QorS9l2jVIr0KILkPKL6-1">
          <mxGeometry x="840" y="130" width="60" height="20" as="geometry" />
        </mxCell>
        <mxCell id="QorS9l2jVIr0KILkPKL6-12" value="" style="verticalLabelPosition=bottom;shadow=0;dashed=0;align=center;html=1;verticalAlign=top;strokeWidth=1;shape=mxgraph.mockup.graphics.simpleIcon;strokeColor=#999999;rounded=0;labelBackgroundColor=none;fontFamily=Verdana;fontSize=14;fontColor=#000000;comic=1;" vertex="1" parent="QorS9l2jVIr0KILkPKL6-1">
          <mxGeometry x="250" y="230" width="580" height="590" as="geometry" />
        </mxCell>
        <mxCell id="QorS9l2jVIr0KILkPKL6-13" value="" style="whiteSpace=wrap;html=1;rounded=0;shadow=0;labelBackgroundColor=none;strokeWidth=1;fillColor=none;fontFamily=Verdana;fontSize=12;align=center;comic=1;" vertex="1" parent="QorS9l2jVIr0KILkPKL6-1">
          <mxGeometry x="840" y="230" width="230" height="590" as="geometry" />
        </mxCell>
        <mxCell id="QorS9l2jVIr0KILkPKL6-14" value="Section 1" style="text;html=1;points=[];align=left;verticalAlign=top;spacingTop=-4;fontSize=14;fontFamily=Verdana" vertex="1" parent="QorS9l2jVIr0KILkPKL6-1">
          <mxGeometry x="40" y="250" width="170" height="20" as="geometry" />
        </mxCell>
        <mxCell id="QorS9l2jVIr0KILkPKL6-15" value="Section 2" style="text;html=1;points=[];align=left;verticalAlign=top;spacingTop=-4;fontSize=14;fontFamily=Verdana" vertex="1" parent="QorS9l2jVIr0KILkPKL6-1">
          <mxGeometry x="40" y="286" width="170" height="20" as="geometry" />
        </mxCell>
        <mxCell id="QorS9l2jVIr0KILkPKL6-16" value="Section 3" style="text;html=1;points=[];align=left;verticalAlign=top;spacingTop=-4;fontSize=14;fontFamily=Verdana" vertex="1" parent="QorS9l2jVIr0KILkPKL6-1">
          <mxGeometry x="40" y="321" width="170" height="20" as="geometry" />
        </mxCell>
        <mxCell id="QorS9l2jVIr0KILkPKL6-17" value="Section 4" style="text;html=1;points=[];align=left;verticalAlign=top;spacingTop=-4;fontSize=14;fontFamily=Verdana" vertex="1" parent="QorS9l2jVIr0KILkPKL6-1">
          <mxGeometry x="40" y="357" width="170" height="20" as="geometry" />
        </mxCell>
        <mxCell id="QorS9l2jVIr0KILkPKL6-18" value="Section 7" style="text;html=1;points=[];align=left;verticalAlign=top;spacingTop=-4;fontSize=14;fontFamily=Verdana" vertex="1" parent="QorS9l2jVIr0KILkPKL6-1">
          <mxGeometry x="40" y="464" width="170" height="20" as="geometry" />
        </mxCell>
        <mxCell id="QorS9l2jVIr0KILkPKL6-19" value="Section 8" style="text;html=1;points=[];align=left;verticalAlign=top;spacingTop=-4;fontSize=14;fontFamily=Verdana" vertex="1" parent="QorS9l2jVIr0KILkPKL6-1">
          <mxGeometry x="40" y="500" width="170" height="20" as="geometry" />
        </mxCell>
        <mxCell id="QorS9l2jVIr0KILkPKL6-20" value="Section 9" style="text;html=1;points=[];align=left;verticalAlign=top;spacingTop=-4;fontSize=14;fontFamily=Verdana" vertex="1" parent="QorS9l2jVIr0KILkPKL6-1">
          <mxGeometry x="40" y="536" width="170" height="20" as="geometry" />
        </mxCell>
        <mxCell id="QorS9l2jVIr0KILkPKL6-21" value="Section 10" style="text;html=1;points=[];align=left;verticalAlign=top;spacingTop=-4;fontSize=14;fontFamily=Verdana" vertex="1" parent="QorS9l2jVIr0KILkPKL6-1">
          <mxGeometry x="40" y="571" width="170" height="20" as="geometry" />
        </mxCell>
        <mxCell id="QorS9l2jVIr0KILkPKL6-22" value="Section 11" style="text;html=1;points=[];align=left;verticalAlign=top;spacingTop=-4;fontSize=14;fontFamily=Verdana" vertex="1" parent="QorS9l2jVIr0KILkPKL6-1">
          <mxGeometry x="40" y="607" width="170" height="20" as="geometry" />
        </mxCell>
        <mxCell id="QorS9l2jVIr0KILkPKL6-23" value="Section 12" style="text;html=1;points=[];align=left;verticalAlign=top;spacingTop=-4;fontSize=14;fontFamily=Verdana" vertex="1" parent="QorS9l2jVIr0KILkPKL6-1">
          <mxGeometry x="40" y="643" width="170" height="20" as="geometry" />
        </mxCell>
        <mxCell id="QorS9l2jVIr0KILkPKL6-24" value="Section 13" style="text;html=1;points=[];align=left;verticalAlign=top;spacingTop=-4;fontSize=14;fontFamily=Verdana" vertex="1" parent="QorS9l2jVIr0KILkPKL6-1">
          <mxGeometry x="40" y="679" width="170" height="20" as="geometry" />
        </mxCell>
        <mxCell id="QorS9l2jVIr0KILkPKL6-25" value="Section 14" style="text;html=1;points=[];align=left;verticalAlign=top;spacingTop=-4;fontSize=14;fontFamily=Verdana" vertex="1" parent="QorS9l2jVIr0KILkPKL6-1">
          <mxGeometry x="40" y="714" width="170" height="20" as="geometry" />
        </mxCell>
        <mxCell id="QorS9l2jVIr0KILkPKL6-26" value="Section 5" style="text;html=1;points=[];align=left;verticalAlign=top;spacingTop=-4;fontSize=14;fontFamily=Verdana" vertex="1" parent="QorS9l2jVIr0KILkPKL6-1">
          <mxGeometry x="40" y="393" width="170" height="20" as="geometry" />
        </mxCell>
        <mxCell id="QorS9l2jVIr0KILkPKL6-27" value="Section 6" style="text;html=1;points=[];align=left;verticalAlign=top;spacingTop=-4;fontSize=14;fontFamily=Verdana" vertex="1" parent="QorS9l2jVIr0KILkPKL6-1">
          <mxGeometry x="40" y="429" width="170" height="20" as="geometry" />
        </mxCell>
        <mxCell id="QorS9l2jVIr0KILkPKL6-28" value="Section 15" style="text;html=1;points=[];align=left;verticalAlign=top;spacingTop=-4;fontSize=14;fontFamily=Verdana" vertex="1" parent="QorS9l2jVIr0KILkPKL6-1">
          <mxGeometry x="40" y="750" width="170" height="20" as="geometry" />
        </mxCell>
        <mxCell id="QorS9l2jVIr0KILkPKL6-29" value="Feature 1" style="text;html=1;points=[];align=left;verticalAlign=top;spacingTop=-4;fontSize=14;fontFamily=Verdana" vertex="1" parent="QorS9l2jVIr0KILkPKL6-1">
          <mxGeometry x="860" y="250" width="170" height="20" as="geometry" />
        </mxCell>
        <mxCell id="QorS9l2jVIr0KILkPKL6-30" value="Feature 2" style="text;html=1;points=[];align=left;verticalAlign=top;spacingTop=-4;fontSize=14;fontFamily=Verdana" vertex="1" parent="QorS9l2jVIr0KILkPKL6-1">
          <mxGeometry x="860" y="285" width="170" height="20" as="geometry" />
        </mxCell>
        <mxCell id="QorS9l2jVIr0KILkPKL6-31" value="Feature 3" style="text;html=1;points=[];align=left;verticalAlign=top;spacingTop=-4;fontSize=14;fontFamily=Verdana" vertex="1" parent="QorS9l2jVIr0KILkPKL6-1">
          <mxGeometry x="860" y="320" width="170" height="20" as="geometry" />
        </mxCell>
        <mxCell id="QorS9l2jVIr0KILkPKL6-32" value="Feature 4" style="text;html=1;points=[];align=left;verticalAlign=top;spacingTop=-4;fontSize=14;fontFamily=Verdana" vertex="1" parent="QorS9l2jVIr0KILkPKL6-1">
          <mxGeometry x="860" y="355" width="170" height="20" as="geometry" />
        </mxCell>
        <mxCell id="QorS9l2jVIr0KILkPKL6-33" value="Feature 5" style="text;html=1;points=[];align=left;verticalAlign=top;spacingTop=-4;fontSize=14;fontFamily=Verdana" vertex="1" parent="QorS9l2jVIr0KILkPKL6-1">
          <mxGeometry x="860" y="390" width="170" height="20" as="geometry" />
        </mxCell>
        <mxCell id="QorS9l2jVIr0KILkPKL6-34" value="Feature 6" style="text;html=1;points=[];align=left;verticalAlign=top;spacingTop=-4;fontSize=14;fontFamily=Verdana" vertex="1" parent="QorS9l2jVIr0KILkPKL6-1">
          <mxGeometry x="860" y="425" width="170" height="20" as="geometry" />
        </mxCell>
        <mxCell id="QorS9l2jVIr0KILkPKL6-35" value="connection" style="text;html=1;points=[];align=left;verticalAlign=top;spacingTop=-4;fontSize=14;fontFamily=Verdana" vertex="1" parent="QorS9l2jVIr0KILkPKL6-1">
          <mxGeometry x="545" y="130" width="90" height="20" as="geometry" />
        </mxCell>
        <mxCell id="QorS9l2jVIr0KILkPKL6-36" value="inscription" style="text;html=1;points=[];align=left;verticalAlign=top;spacingTop=-4;fontSize=14;fontFamily=Verdana" vertex="1" parent="QorS9l2jVIr0KILkPKL6-1">
          <mxGeometry x="650" y="130" width="90" height="20" as="geometry" />
        </mxCell>
        <mxCell id="QorS9l2jVIr0KILkPKL6-37" value="" style="edgeStyle=orthogonalEdgeStyle;rounded=0;orthogonalLoop=1;jettySize=auto;html=1;" edge="1" parent="QorS9l2jVIr0KILkPKL6-1" source="QorS9l2jVIr0KILkPKL6-38" target="QorS9l2jVIr0KILkPKL6-39">
          <mxGeometry relative="1" as="geometry" />
        </mxCell>
        <mxCell id="QorS9l2jVIr0KILkPKL6-38" value="" style="rounded=0;whiteSpace=wrap;html=1;fillColor=none;" vertex="1" parent="QorS9l2jVIr0KILkPKL6-1">
          <mxGeometry x="530" y="120" width="210" height="40" as="geometry" />
        </mxCell>
        <mxCell id="QorS9l2jVIr0KILkPKL6-39" value="" style="rounded=0;whiteSpace=wrap;html=1;fillColor=none;" vertex="1" parent="QorS9l2jVIr0KILkPKL6-1">
          <mxGeometry x="820" y="120" width="210" height="40" as="geometry" />
        </mxCell>
        <mxCell id="QorS9l2jVIr0KILkPKL6-40" value="logout" style="text;html=1;points=[];align=left;verticalAlign=top;spacingTop=-4;fontSize=14;fontFamily=Verdana" vertex="1" parent="QorS9l2jVIr0KILkPKL6-1">
          <mxGeometry x="925" y="130" width="60" height="20" as="geometry" />
        </mxCell>
        <mxCell id="QorS9l2jVIr0KILkPKL6-41" value="HOME DESKTOP" style="rounded=0;whiteSpace=wrap;html=1;" vertex="1" parent="QorS9l2jVIr0KILkPKL6-1">
          <mxGeometry x="980" width="120" height="40" as="geometry" />
        </mxCell>
      </root>
    </mxGraphModel>
  </diagram>
  <diagram name="SHEET TABLETTE" id="dP0vOYFOZYwQXw18rCtR">
    <mxGraphModel dx="1434" dy="836" grid="1" gridSize="10" guides="1" tooltips="1" connect="1" arrows="1" fold="1" page="1" pageScale="1" pageWidth="1100" pageHeight="850" background="#ffffff" math="0" shadow="0">
      <root>
        <mxCell id="-vWbWY3nT4bQnS1JmJJi-0" />
        <mxCell id="-vWbWY3nT4bQnS1JmJJi-1" parent="-vWbWY3nT4bQnS1JmJJi-0" />
        <mxCell id="-vWbWY3nT4bQnS1JmJJi-2" value="" style="whiteSpace=wrap;html=1;rounded=0;shadow=0;labelBackgroundColor=none;strokeWidth=1;fillColor=none;fontFamily=Verdana;fontSize=12;align=center;comic=1;" vertex="1" parent="-vWbWY3nT4bQnS1JmJJi-1">
          <mxGeometry x="30" y="115" width="1040" height="50" as="geometry" />
        </mxCell>
        <mxCell id="-vWbWY3nT4bQnS1JmJJi-3" value="" style="whiteSpace=wrap;html=1;rounded=0;shadow=0;labelBackgroundColor=none;strokeColor=#000000;strokeWidth=1;fillColor=none;fontFamily=Verdana;fontSize=12;fontColor=#000000;align=center;comic=1;" vertex="1" parent="-vWbWY3nT4bQnS1JmJJi-1">
          <mxGeometry x="20" y="20" width="1060" height="810" as="geometry" />
        </mxCell>
        <mxCell id="-vWbWY3nT4bQnS1JmJJi-4" value="LOGO" style="whiteSpace=wrap;html=1;rounded=0;shadow=0;labelBackgroundColor=none;strokeWidth=1;fontFamily=Verdana;fontSize=28;align=center;comic=1;" vertex="1" parent="-vWbWY3nT4bQnS1JmJJi-1">
          <mxGeometry x="50" y="40" width="190" height="50" as="geometry" />
        </mxCell>
        <mxCell id="-vWbWY3nT4bQnS1JmJJi-5" value="accueil" style="text;html=1;points=[];align=left;verticalAlign=top;spacingTop=-4;fontSize=14;fontFamily=Verdana" vertex="1" parent="-vWbWY3nT4bQnS1JmJJi-1">
          <mxGeometry x="230" y="130" width="60" height="20" as="geometry" />
        </mxCell>
        <mxCell id="-vWbWY3nT4bQnS1JmJJi-6" value="nom du site" style="text;html=1;points=[];align=left;verticalAlign=top;spacingTop=-4;fontSize=14;fontFamily=Verdana" vertex="1" parent="-vWbWY3nT4bQnS1JmJJi-1">
          <mxGeometry x="417" y="50" width="123" height="25" as="geometry" />
        </mxCell>
        <mxCell id="-vWbWY3nT4bQnS1JmJJi-7" value="" style="whiteSpace=wrap;html=1;rounded=0;shadow=0;labelBackgroundColor=none;strokeWidth=1;fillColor=none;fontFamily=Verdana;fontSize=12;align=center;comic=1;" vertex="1" parent="-vWbWY3nT4bQnS1JmJJi-1">
          <mxGeometry x="30" y="230" width="200" height="590" as="geometry" />
        </mxCell>
        <mxCell id="-vWbWY3nT4bQnS1JmJJi-8" value="NAV" style="text;html=1;points=[];align=left;verticalAlign=top;spacingTop=-4;fontSize=14;fontFamily=Verdana" vertex="1" parent="-vWbWY3nT4bQnS1JmJJi-1">
          <mxGeometry x="50" y="130" width="60" height="20" as="geometry" />
        </mxCell>
        <mxCell id="-vWbWY3nT4bQnS1JmJJi-9" value="bibliothÃ¨que" style="text;html=1;points=[];align=left;verticalAlign=top;spacingTop=-4;fontSize=14;fontFamily=Verdana" vertex="1" parent="-vWbWY3nT4bQnS1JmJJi-1">
          <mxGeometry x="330" y="130" width="100" height="20" as="geometry" />
        </mxCell>
        <mxCell id="-vWbWY3nT4bQnS1JmJJi-10" value="sheet" style="text;html=1;points=[];align=left;verticalAlign=top;spacingTop=-4;fontSize=14;fontFamily=Verdana" vertex="1" parent="-vWbWY3nT4bQnS1JmJJi-1">
          <mxGeometry x="448.5" y="130" width="60" height="20" as="geometry" />
        </mxCell>
        <mxCell id="-vWbWY3nT4bQnS1JmJJi-11" value="profil" style="text;html=1;points=[];align=left;verticalAlign=top;spacingTop=-4;fontSize=14;fontFamily=Verdana" vertex="1" parent="-vWbWY3nT4bQnS1JmJJi-1">
          <mxGeometry x="840" y="130" width="60" height="20" as="geometry" />
        </mxCell>
        <mxCell id="-vWbWY3nT4bQnS1JmJJi-12" value="" style="verticalLabelPosition=bottom;shadow=0;dashed=0;align=center;html=1;verticalAlign=top;strokeWidth=1;shape=mxgraph.mockup.graphics.simpleIcon;strokeColor=#999999;rounded=0;labelBackgroundColor=none;fontFamily=Verdana;fontSize=14;fontColor=#000000;comic=1;" vertex="1" parent="-vWbWY3nT4bQnS1JmJJi-1">
          <mxGeometry x="250" y="230" width="580" height="590" as="geometry" />
        </mxCell>
        <mxCell id="-vWbWY3nT4bQnS1JmJJi-13" value="" style="whiteSpace=wrap;html=1;rounded=0;shadow=0;labelBackgroundColor=none;strokeWidth=1;fillColor=none;fontFamily=Verdana;fontSize=12;align=center;comic=1;" vertex="1" parent="-vWbWY3nT4bQnS1JmJJi-1">
          <mxGeometry x="840" y="230" width="230" height="590" as="geometry" />
        </mxCell>
        <mxCell id="-vWbWY3nT4bQnS1JmJJi-14" value="Section 1" style="text;html=1;points=[];align=left;verticalAlign=top;spacingTop=-4;fontSize=14;fontFamily=Verdana" vertex="1" parent="-vWbWY3nT4bQnS1JmJJi-1">
          <mxGeometry x="40" y="250" width="170" height="20" as="geometry" />
        </mxCell>
        <mxCell id="-vWbWY3nT4bQnS1JmJJi-15" value="Section 2" style="text;html=1;points=[];align=left;verticalAlign=top;spacingTop=-4;fontSize=14;fontFamily=Verdana" vertex="1" parent="-vWbWY3nT4bQnS1JmJJi-1">
          <mxGeometry x="40" y="286" width="170" height="20" as="geometry" />
        </mxCell>
        <mxCell id="-vWbWY3nT4bQnS1JmJJi-16" value="Section 3" style="text;html=1;points=[];align=left;verticalAlign=top;spacingTop=-4;fontSize=14;fontFamily=Verdana" vertex="1" parent="-vWbWY3nT4bQnS1JmJJi-1">
          <mxGeometry x="40" y="321" width="170" height="20" as="geometry" />
        </mxCell>
        <mxCell id="-vWbWY3nT4bQnS1JmJJi-17" value="Section 4" style="text;html=1;points=[];align=left;verticalAlign=top;spacingTop=-4;fontSize=14;fontFamily=Verdana" vertex="1" parent="-vWbWY3nT4bQnS1JmJJi-1">
          <mxGeometry x="40" y="357" width="170" height="20" as="geometry" />
        </mxCell>
        <mxCell id="-vWbWY3nT4bQnS1JmJJi-18" value="Section 7" style="text;html=1;points=[];align=left;verticalAlign=top;spacingTop=-4;fontSize=14;fontFamily=Verdana" vertex="1" parent="-vWbWY3nT4bQnS1JmJJi-1">
          <mxGeometry x="40" y="464" width="170" height="20" as="geometry" />
        </mxCell>
        <mxCell id="-vWbWY3nT4bQnS1JmJJi-19" value="Section 8" style="text;html=1;points=[];align=left;verticalAlign=top;spacingTop=-4;fontSize=14;fontFamily=Verdana" vertex="1" parent="-vWbWY3nT4bQnS1JmJJi-1">
          <mxGeometry x="40" y="500" width="170" height="20" as="geometry" />
        </mxCell>
        <mxCell id="-vWbWY3nT4bQnS1JmJJi-20" value="Section 9" style="text;html=1;points=[];align=left;verticalAlign=top;spacingTop=-4;fontSize=14;fontFamily=Verdana" vertex="1" parent="-vWbWY3nT4bQnS1JmJJi-1">
          <mxGeometry x="40" y="536" width="170" height="20" as="geometry" />
        </mxCell>
        <mxCell id="-vWbWY3nT4bQnS1JmJJi-21" value="Section 10" style="text;html=1;points=[];align=left;verticalAlign=top;spacingTop=-4;fontSize=14;fontFamily=Verdana" vertex="1" parent="-vWbWY3nT4bQnS1JmJJi-1">
          <mxGeometry x="40" y="571" width="170" height="20" as="geometry" />
        </mxCell>
        <mxCell id="-vWbWY3nT4bQnS1JmJJi-22" value="Section 11" style="text;html=1;points=[];align=left;verticalAlign=top;spacingTop=-4;fontSize=14;fontFamily=Verdana" vertex="1" parent="-vWbWY3nT4bQnS1JmJJi-1">
          <mxGeometry x="40" y="607" width="170" height="20" as="geometry" />
        </mxCell>
        <mxCell id="-vWbWY3nT4bQnS1JmJJi-23" value="Section 12" style="text;html=1;points=[];align=left;verticalAlign=top;spacingTop=-4;fontSize=14;fontFamily=Verdana" vertex="1" parent="-vWbWY3nT4bQnS1JmJJi-1">
          <mxGeometry x="40" y="643" width="170" height="20" as="geometry" />
        </mxCell>
        <mxCell id="-vWbWY3nT4bQnS1JmJJi-24" value="Section 13" style="text;html=1;points=[];align=left;verticalAlign=top;spacingTop=-4;fontSize=14;fontFamily=Verdana" vertex="1" parent="-vWbWY3nT4bQnS1JmJJi-1">
          <mxGeometry x="40" y="679" width="170" height="20" as="geometry" />
        </mxCell>
        <mxCell id="-vWbWY3nT4bQnS1JmJJi-25" value="Section 14" style="text;html=1;points=[];align=left;verticalAlign=top;spacingTop=-4;fontSize=14;fontFamily=Verdana" vertex="1" parent="-vWbWY3nT4bQnS1JmJJi-1">
          <mxGeometry x="40" y="714" width="170" height="20" as="geometry" />
        </mxCell>
        <mxCell id="-vWbWY3nT4bQnS1JmJJi-26" value="Section 5" style="text;html=1;points=[];align=left;verticalAlign=top;spacingTop=-4;fontSize=14;fontFamily=Verdana" vertex="1" parent="-vWbWY3nT4bQnS1JmJJi-1">
          <mxGeometry x="40" y="393" width="170" height="20" as="geometry" />
        </mxCell>
        <mxCell id="-vWbWY3nT4bQnS1JmJJi-27" value="Section 6" style="text;html=1;points=[];align=left;verticalAlign=top;spacingTop=-4;fontSize=14;fontFamily=Verdana" vertex="1" parent="-vWbWY3nT4bQnS1JmJJi-1">
          <mxGeometry x="40" y="429" width="170" height="20" as="geometry" />
        </mxCell>
        <mxCell id="-vWbWY3nT4bQnS1JmJJi-28" value="Section 15" style="text;html=1;points=[];align=left;verticalAlign=top;spacingTop=-4;fontSize=14;fontFamily=Verdana" vertex="1" parent="-vWbWY3nT4bQnS1JmJJi-1">
          <mxGeometry x="40" y="750" width="170" height="20" as="geometry" />
        </mxCell>
        <mxCell id="-vWbWY3nT4bQnS1JmJJi-29" value="Feature 1" style="text;html=1;points=[];align=left;verticalAlign=top;spacingTop=-4;fontSize=14;fontFamily=Verdana" vertex="1" parent="-vWbWY3nT4bQnS1JmJJi-1">
          <mxGeometry x="860" y="250" width="170" height="20" as="geometry" />
        </mxCell>
        <mxCell id="-vWbWY3nT4bQnS1JmJJi-30" value="Feature 2" style="text;html=1;points=[];align=left;verticalAlign=top;spacingTop=-4;fontSize=14;fontFamily=Verdana" vertex="1" parent="-vWbWY3nT4bQnS1JmJJi-1">
          <mxGeometry x="860" y="285" width="170" height="20" as="geometry" />
        </mxCell>
        <mxCell id="-vWbWY3nT4bQnS1JmJJi-31" value="Feature 3" style="text;html=1;points=[];align=left;verticalAlign=top;spacingTop=-4;fontSize=14;fontFamily=Verdana" vertex="1" parent="-vWbWY3nT4bQnS1JmJJi-1">
          <mxGeometry x="860" y="320" width="170" height="20" as="geometry" />
        </mxCell>
        <mxCell id="-vWbWY3nT4bQnS1JmJJi-32" value="Feature 4" style="text;html=1;points=[];align=left;verticalAlign=top;spacingTop=-4;fontSize=14;fontFamily=Verdana" vertex="1" parent="-vWbWY3nT4bQnS1JmJJi-1">
          <mxGeometry x="860" y="355" width="170" height="20" as="geometry" />
        </mxCell>
        <mxCell id="-vWbWY3nT4bQnS1JmJJi-33" value="Feature 5" style="text;html=1;points=[];align=left;verticalAlign=top;spacingTop=-4;fontSize=14;fontFamily=Verdana" vertex="1" parent="-vWbWY3nT4bQnS1JmJJi-1">
          <mxGeometry x="860" y="390" width="170" height="20" as="geometry" />
        </mxCell>
        <mxCell id="-vWbWY3nT4bQnS1JmJJi-34" value="Feature 6" style="text;html=1;points=[];align=left;verticalAlign=top;spacingTop=-4;fontSize=14;fontFamily=Verdana" vertex="1" parent="-vWbWY3nT4bQnS1JmJJi-1">
          <mxGeometry x="860" y="425" width="170" height="20" as="geometry" />
        </mxCell>
        <mxCell id="-vWbWY3nT4bQnS1JmJJi-35" value="connection" style="text;html=1;points=[];align=left;verticalAlign=top;spacingTop=-4;fontSize=14;fontFamily=Verdana" vertex="1" parent="-vWbWY3nT4bQnS1JmJJi-1">
          <mxGeometry x="545" y="130" width="90" height="20" as="geometry" />
        </mxCell>
        <mxCell id="-vWbWY3nT4bQnS1JmJJi-36" value="inscription" style="text;html=1;points=[];align=left;verticalAlign=top;spacingTop=-4;fontSize=14;fontFamily=Verdana" vertex="1" parent="-vWbWY3nT4bQnS1JmJJi-1">
          <mxGeometry x="650" y="130" width="90" height="20" as="geometry" />
        </mxCell>
        <mxCell id="-vWbWY3nT4bQnS1JmJJi-37" value="" style="edgeStyle=orthogonalEdgeStyle;rounded=0;orthogonalLoop=1;jettySize=auto;html=1;" edge="1" parent="-vWbWY3nT4bQnS1JmJJi-1" source="-vWbWY3nT4bQnS1JmJJi-38" target="-vWbWY3nT4bQnS1JmJJi-39">
          <mxGeometry relative="1" as="geometry" />
        </mxCell>
        <mxCell id="-vWbWY3nT4bQnS1JmJJi-38" value="" style="rounded=0;whiteSpace=wrap;html=1;fillColor=none;" vertex="1" parent="-vWbWY3nT4bQnS1JmJJi-1">
          <mxGeometry x="530" y="120" width="210" height="40" as="geometry" />
        </mxCell>
        <mxCell id="-vWbWY3nT4bQnS1JmJJi-39" value="" style="rounded=0;whiteSpace=wrap;html=1;fillColor=none;" vertex="1" parent="-vWbWY3nT4bQnS1JmJJi-1">
          <mxGeometry x="820" y="120" width="210" height="40" as="geometry" />
        </mxCell>
        <mxCell id="-vWbWY3nT4bQnS1JmJJi-40" value="logout" style="text;html=1;points=[];align=left;verticalAlign=top;spacingTop=-4;fontSize=14;fontFamily=Verdana" vertex="1" parent="-vWbWY3nT4bQnS1JmJJi-1">
          <mxGeometry x="925" y="130" width="60" height="20" as="geometry" />
        </mxCell>
        <mxCell id="-vWbWY3nT4bQnS1JmJJi-41" value="HOME DESKTOP" style="rounded=0;whiteSpace=wrap;html=1;" vertex="1" parent="-vWbWY3nT4bQnS1JmJJi-1">
          <mxGeometry x="980" width="120" height="40" as="geometry" />
        </mxCell>
      </root>
    </mxGraphModel>
  </diagram>
  <diagram name="CONNECTION TABLETTE" id="nUhdo-mswlLcrcpEGxkA">
    <mxGraphModel dx="1434" dy="836" grid="1" gridSize="10" guides="1" tooltips="1" connect="1" arrows="1" fold="1" page="1" pageScale="1" pageWidth="1100" pageHeight="850" background="#ffffff" math="0" shadow="0">
      <root>
        <mxCell id="dczYaz7izdslxgWz6eCp-0" />
        <mxCell id="dczYaz7izdslxgWz6eCp-1" parent="dczYaz7izdslxgWz6eCp-0" />
        <mxCell id="dczYaz7izdslxgWz6eCp-2" value="" style="whiteSpace=wrap;html=1;rounded=0;shadow=0;labelBackgroundColor=none;strokeWidth=1;fillColor=none;fontFamily=Verdana;fontSize=12;align=center;comic=1;" vertex="1" parent="dczYaz7izdslxgWz6eCp-1">
          <mxGeometry x="30" y="115" width="1040" height="50" as="geometry" />
        </mxCell>
        <mxCell id="dczYaz7izdslxgWz6eCp-3" value="" style="whiteSpace=wrap;html=1;rounded=0;shadow=0;labelBackgroundColor=none;strokeColor=#000000;strokeWidth=1;fillColor=none;fontFamily=Verdana;fontSize=12;fontColor=#000000;align=center;comic=1;" vertex="1" parent="dczYaz7izdslxgWz6eCp-1">
          <mxGeometry x="20" y="20" width="1060" height="810" as="geometry" />
        </mxCell>
        <mxCell id="dczYaz7izdslxgWz6eCp-4" value="LOGO" style="whiteSpace=wrap;html=1;rounded=0;shadow=0;labelBackgroundColor=none;strokeWidth=1;fontFamily=Verdana;fontSize=28;align=center;comic=1;" vertex="1" parent="dczYaz7izdslxgWz6eCp-1">
          <mxGeometry x="50" y="40" width="190" height="50" as="geometry" />
        </mxCell>
        <mxCell id="dczYaz7izdslxgWz6eCp-5" value="accueil" style="text;html=1;points=[];align=left;verticalAlign=top;spacingTop=-4;fontSize=14;fontFamily=Verdana" vertex="1" parent="dczYaz7izdslxgWz6eCp-1">
          <mxGeometry x="230" y="130" width="60" height="20" as="geometry" />
        </mxCell>
        <mxCell id="dczYaz7izdslxgWz6eCp-6" value="nom du site" style="text;html=1;points=[];align=left;verticalAlign=top;spacingTop=-4;fontSize=14;fontFamily=Verdana" vertex="1" parent="dczYaz7izdslxgWz6eCp-1">
          <mxGeometry x="417" y="50" width="123" height="25" as="geometry" />
        </mxCell>
        <mxCell id="dczYaz7izdslxgWz6eCp-7" value="" style="whiteSpace=wrap;html=1;rounded=0;shadow=0;labelBackgroundColor=none;strokeWidth=1;fillColor=none;fontFamily=Verdana;fontSize=12;align=center;comic=1;" vertex="1" parent="dczYaz7izdslxgWz6eCp-1">
          <mxGeometry x="30" y="230" width="200" height="590" as="geometry" />
        </mxCell>
        <mxCell id="dczYaz7izdslxgWz6eCp-8" value="NAV" style="text;html=1;points=[];align=left;verticalAlign=top;spacingTop=-4;fontSize=14;fontFamily=Verdana" vertex="1" parent="dczYaz7izdslxgWz6eCp-1">
          <mxGeometry x="50" y="130" width="60" height="20" as="geometry" />
        </mxCell>
        <mxCell id="dczYaz7izdslxgWz6eCp-9" value="bibliothÃ¨que" style="text;html=1;points=[];align=left;verticalAlign=top;spacingTop=-4;fontSize=14;fontFamily=Verdana" vertex="1" parent="dczYaz7izdslxgWz6eCp-1">
          <mxGeometry x="330" y="130" width="100" height="20" as="geometry" />
        </mxCell>
        <mxCell id="dczYaz7izdslxgWz6eCp-10" value="sheet" style="text;html=1;points=[];align=left;verticalAlign=top;spacingTop=-4;fontSize=14;fontFamily=Verdana" vertex="1" parent="dczYaz7izdslxgWz6eCp-1">
          <mxGeometry x="448.5" y="130" width="60" height="20" as="geometry" />
        </mxCell>
        <mxCell id="dczYaz7izdslxgWz6eCp-11" value="profil" style="text;html=1;points=[];align=left;verticalAlign=top;spacingTop=-4;fontSize=14;fontFamily=Verdana" vertex="1" parent="dczYaz7izdslxgWz6eCp-1">
          <mxGeometry x="840" y="130" width="60" height="20" as="geometry" />
        </mxCell>
        <mxCell id="dczYaz7izdslxgWz6eCp-12" value="" style="verticalLabelPosition=bottom;shadow=0;dashed=0;align=center;html=1;verticalAlign=top;strokeWidth=1;shape=mxgraph.mockup.graphics.simpleIcon;strokeColor=#999999;rounded=0;labelBackgroundColor=none;fontFamily=Verdana;fontSize=14;fontColor=#000000;comic=1;" vertex="1" parent="dczYaz7izdslxgWz6eCp-1">
          <mxGeometry x="250" y="230" width="580" height="590" as="geometry" />
        </mxCell>
        <mxCell id="dczYaz7izdslxgWz6eCp-13" value="" style="whiteSpace=wrap;html=1;rounded=0;shadow=0;labelBackgroundColor=none;strokeWidth=1;fillColor=none;fontFamily=Verdana;fontSize=12;align=center;comic=1;" vertex="1" parent="dczYaz7izdslxgWz6eCp-1">
          <mxGeometry x="840" y="230" width="230" height="590" as="geometry" />
        </mxCell>
        <mxCell id="dczYaz7izdslxgWz6eCp-14" value="Section 1" style="text;html=1;points=[];align=left;verticalAlign=top;spacingTop=-4;fontSize=14;fontFamily=Verdana" vertex="1" parent="dczYaz7izdslxgWz6eCp-1">
          <mxGeometry x="40" y="250" width="170" height="20" as="geometry" />
        </mxCell>
        <mxCell id="dczYaz7izdslxgWz6eCp-15" value="Section 2" style="text;html=1;points=[];align=left;verticalAlign=top;spacingTop=-4;fontSize=14;fontFamily=Verdana" vertex="1" parent="dczYaz7izdslxgWz6eCp-1">
          <mxGeometry x="40" y="286" width="170" height="20" as="geometry" />
        </mxCell>
        <mxCell id="dczYaz7izdslxgWz6eCp-16" value="Section 3" style="text;html=1;points=[];align=left;verticalAlign=top;spacingTop=-4;fontSize=14;fontFamily=Verdana" vertex="1" parent="dczYaz7izdslxgWz6eCp-1">
          <mxGeometry x="40" y="321" width="170" height="20" as="geometry" />
        </mxCell>
        <mxCell id="dczYaz7izdslxgWz6eCp-17" value="Section 4" style="text;html=1;points=[];align=left;verticalAlign=top;spacingTop=-4;fontSize=14;fontFamily=Verdana" vertex="1" parent="dczYaz7izdslxgWz6eCp-1">
          <mxGeometry x="40" y="357" width="170" height="20" as="geometry" />
        </mxCell>
        <mxCell id="dczYaz7izdslxgWz6eCp-18" value="Section 7" style="text;html=1;points=[];align=left;verticalAlign=top;spacingTop=-4;fontSize=14;fontFamily=Verdana" vertex="1" parent="dczYaz7izdslxgWz6eCp-1">
          <mxGeometry x="40" y="464" width="170" height="20" as="geometry" />
        </mxCell>
        <mxCell id="dczYaz7izdslxgWz6eCp-19" value="Section 8" style="text;html=1;points=[];align=left;verticalAlign=top;spacingTop=-4;fontSize=14;fontFamily=Verdana" vertex="1" parent="dczYaz7izdslxgWz6eCp-1">
          <mxGeometry x="40" y="500" width="170" height="20" as="geometry" />
        </mxCell>
        <mxCell id="dczYaz7izdslxgWz6eCp-20" value="Section 9" style="text;html=1;points=[];align=left;verticalAlign=top;spacingTop=-4;fontSize=14;fontFamily=Verdana" vertex="1" parent="dczYaz7izdslxgWz6eCp-1">
          <mxGeometry x="40" y="536" width="170" height="20" as="geometry" />
        </mxCell>
        <mxCell id="dczYaz7izdslxgWz6eCp-21" value="Section 10" style="text;html=1;points=[];align=left;verticalAlign=top;spacingTop=-4;fontSize=14;fontFamily=Verdana" vertex="1" parent="dczYaz7izdslxgWz6eCp-1">
          <mxGeometry x="40" y="571" width="170" height="20" as="geometry" />
        </mxCell>
        <mxCell id="dczYaz7izdslxgWz6eCp-22" value="Section 11" style="text;html=1;points=[];align=left;verticalAlign=top;spacingTop=-4;fontSize=14;fontFamily=Verdana" vertex="1" parent="dczYaz7izdslxgWz6eCp-1">
          <mxGeometry x="40" y="607" width="170" height="20" as="geometry" />
        </mxCell>
        <mxCell id="dczYaz7izdslxgWz6eCp-23" value="Section 12" style="text;html=1;points=[];align=left;verticalAlign=top;spacingTop=-4;fontSize=14;fontFamily=Verdana" vertex="1" parent="dczYaz7izdslxgWz6eCp-1">
          <mxGeometry x="40" y="643" width="170" height="20" as="geometry" />
        </mxCell>
        <mxCell id="dczYaz7izdslxgWz6eCp-24" value="Section 13" style="text;html=1;points=[];align=left;verticalAlign=top;spacingTop=-4;fontSize=14;fontFamily=Verdana" vertex="1" parent="dczYaz7izdslxgWz6eCp-1">
          <mxGeometry x="40" y="679" width="170" height="20" as="geometry" />
        </mxCell>
        <mxCell id="dczYaz7izdslxgWz6eCp-25" value="Section 14" style="text;html=1;points=[];align=left;verticalAlign=top;spacingTop=-4;fontSize=14;fontFamily=Verdana" vertex="1" parent="dczYaz7izdslxgWz6eCp-1">
          <mxGeometry x="40" y="714" width="170" height="20" as="geometry" />
        </mxCell>
        <mxCell id="dczYaz7izdslxgWz6eCp-26" value="Section 5" style="text;html=1;points=[];align=left;verticalAlign=top;spacingTop=-4;fontSize=14;fontFamily=Verdana" vertex="1" parent="dczYaz7izdslxgWz6eCp-1">
          <mxGeometry x="40" y="393" width="170" height="20" as="geometry" />
        </mxCell>
        <mxCell id="dczYaz7izdslxgWz6eCp-27" value="Section 6" style="text;html=1;points=[];align=left;verticalAlign=top;spacingTop=-4;fontSize=14;fontFamily=Verdana" vertex="1" parent="dczYaz7izdslxgWz6eCp-1">
          <mxGeometry x="40" y="429" width="170" height="20" as="geometry" />
        </mxCell>
        <mxCell id="dczYaz7izdslxgWz6eCp-28" value="Section 15" style="text;html=1;points=[];align=left;verticalAlign=top;spacingTop=-4;fontSize=14;fontFamily=Verdana" vertex="1" parent="dczYaz7izdslxgWz6eCp-1">
          <mxGeometry x="40" y="750" width="170" height="20" as="geometry" />
        </mxCell>
        <mxCell id="dczYaz7izdslxgWz6eCp-29" value="Feature 1" style="text;html=1;points=[];align=left;verticalAlign=top;spacingTop=-4;fontSize=14;fontFamily=Verdana" vertex="1" parent="dczYaz7izdslxgWz6eCp-1">
          <mxGeometry x="860" y="250" width="170" height="20" as="geometry" />
        </mxCell>
        <mxCell id="dczYaz7izdslxgWz6eCp-30" value="Feature 2" style="text;html=1;points=[];align=left;verticalAlign=top;spacingTop=-4;fontSize=14;fontFamily=Verdana" vertex="1" parent="dczYaz7izdslxgWz6eCp-1">
          <mxGeometry x="860" y="285" width="170" height="20" as="geometry" />
        </mxCell>
        <mxCell id="dczYaz7izdslxgWz6eCp-31" value="Feature 3" style="text;html=1;points=[];align=left;verticalAlign=top;spacingTop=-4;fontSize=14;fontFamily=Verdana" vertex="1" parent="dczYaz7izdslxgWz6eCp-1">
          <mxGeometry x="860" y="320" width="170" height="20" as="geometry" />
        </mxCell>
        <mxCell id="dczYaz7izdslxgWz6eCp-32" value="Feature 4" style="text;html=1;points=[];align=left;verticalAlign=top;spacingTop=-4;fontSize=14;fontFamily=Verdana" vertex="1" parent="dczYaz7izdslxgWz6eCp-1">
          <mxGeometry x="860" y="355" width="170" height="20" as="geometry" />
        </mxCell>
        <mxCell id="dczYaz7izdslxgWz6eCp-33" value="Feature 5" style="text;html=1;points=[];align=left;verticalAlign=top;spacingTop=-4;fontSize=14;fontFamily=Verdana" vertex="1" parent="dczYaz7izdslxgWz6eCp-1">
          <mxGeometry x="860" y="390" width="170" height="20" as="geometry" />
        </mxCell>
        <mxCell id="dczYaz7izdslxgWz6eCp-34" value="Feature 6" style="text;html=1;points=[];align=left;verticalAlign=top;spacingTop=-4;fontSize=14;fontFamily=Verdana" vertex="1" parent="dczYaz7izdslxgWz6eCp-1">
          <mxGeometry x="860" y="425" width="170" height="20" as="geometry" />
        </mxCell>
        <mxCell id="dczYaz7izdslxgWz6eCp-35" value="connection" style="text;html=1;points=[];align=left;verticalAlign=top;spacingTop=-4;fontSize=14;fontFamily=Verdana" vertex="1" parent="dczYaz7izdslxgWz6eCp-1">
          <mxGeometry x="545" y="130" width="90" height="20" as="geometry" />
        </mxCell>
        <mxCell id="dczYaz7izdslxgWz6eCp-36" value="inscription" style="text;html=1;points=[];align=left;verticalAlign=top;spacingTop=-4;fontSize=14;fontFamily=Verdana" vertex="1" parent="dczYaz7izdslxgWz6eCp-1">
          <mxGeometry x="650" y="130" width="90" height="20" as="geometry" />
        </mxCell>
        <mxCell id="dczYaz7izdslxgWz6eCp-37" value="" style="edgeStyle=orthogonalEdgeStyle;rounded=0;orthogonalLoop=1;jettySize=auto;html=1;" edge="1" parent="dczYaz7izdslxgWz6eCp-1" source="dczYaz7izdslxgWz6eCp-38" target="dczYaz7izdslxgWz6eCp-39">
          <mxGeometry relative="1" as="geometry" />
        </mxCell>
        <mxCell id="dczYaz7izdslxgWz6eCp-38" value="" style="rounded=0;whiteSpace=wrap;html=1;fillColor=none;" vertex="1" parent="dczYaz7izdslxgWz6eCp-1">
          <mxGeometry x="530" y="120" width="210" height="40" as="geometry" />
        </mxCell>
        <mxCell id="dczYaz7izdslxgWz6eCp-39" value="" style="rounded=0;whiteSpace=wrap;html=1;fillColor=none;" vertex="1" parent="dczYaz7izdslxgWz6eCp-1">
          <mxGeometry x="820" y="120" width="210" height="40" as="geometry" />
        </mxCell>
        <mxCell id="dczYaz7izdslxgWz6eCp-40" value="logout" style="text;html=1;points=[];align=left;verticalAlign=top;spacingTop=-4;fontSize=14;fontFamily=Verdana" vertex="1" parent="dczYaz7izdslxgWz6eCp-1">
          <mxGeometry x="925" y="130" width="60" height="20" as="geometry" />
        </mxCell>
        <mxCell id="dczYaz7izdslxgWz6eCp-41" value="HOME DESKTOP" style="rounded=0;whiteSpace=wrap;html=1;" vertex="1" parent="dczYaz7izdslxgWz6eCp-1">
          <mxGeometry x="980" width="120" height="40" as="geometry" />
        </mxCell>
      </root>
    </mxGraphModel>
  </diagram>
  <diagram name="INSCRIPTION TABLETTE" id="pTvUA0TMBY68knGx4pp3">
    <mxGraphModel dx="1434" dy="836" grid="1" gridSize="10" guides="1" tooltips="1" connect="1" arrows="1" fold="1" page="1" pageScale="1" pageWidth="1100" pageHeight="850" background="#ffffff" math="0" shadow="0">
      <root>
        <mxCell id="PqDsPl_Uixphd_8dTkpM-0" />
        <mxCell id="PqDsPl_Uixphd_8dTkpM-1" parent="PqDsPl_Uixphd_8dTkpM-0" />
        <mxCell id="PqDsPl_Uixphd_8dTkpM-2" value="" style="whiteSpace=wrap;html=1;rounded=0;shadow=0;labelBackgroundColor=none;strokeWidth=1;fillColor=none;fontFamily=Verdana;fontSize=12;align=center;comic=1;" parent="PqDsPl_Uixphd_8dTkpM-1" vertex="1">
          <mxGeometry x="30" y="115" width="1040" height="50" as="geometry" />
        </mxCell>
        <mxCell id="PqDsPl_Uixphd_8dTkpM-3" value="" style="whiteSpace=wrap;html=1;rounded=0;shadow=0;labelBackgroundColor=none;strokeColor=#000000;strokeWidth=1;fillColor=none;fontFamily=Verdana;fontSize=12;fontColor=#000000;align=center;comic=1;" parent="PqDsPl_Uixphd_8dTkpM-1" vertex="1">
          <mxGeometry x="20" y="20" width="1060" height="810" as="geometry" />
        </mxCell>
        <mxCell id="PqDsPl_Uixphd_8dTkpM-4" value="LOGO" style="whiteSpace=wrap;html=1;rounded=0;shadow=0;labelBackgroundColor=none;strokeWidth=1;fontFamily=Verdana;fontSize=28;align=center;comic=1;" parent="PqDsPl_Uixphd_8dTkpM-1" vertex="1">
          <mxGeometry x="50" y="40" width="190" height="50" as="geometry" />
        </mxCell>
        <mxCell id="PqDsPl_Uixphd_8dTkpM-5" value="accueil" style="text;html=1;points=[];align=left;verticalAlign=top;spacingTop=-4;fontSize=14;fontFamily=Verdana" parent="PqDsPl_Uixphd_8dTkpM-1" vertex="1">
          <mxGeometry x="230" y="130" width="60" height="20" as="geometry" />
        </mxCell>
        <mxCell id="PqDsPl_Uixphd_8dTkpM-6" value="nom du site" style="text;html=1;points=[];align=left;verticalAlign=top;spacingTop=-4;fontSize=14;fontFamily=Verdana" parent="PqDsPl_Uixphd_8dTkpM-1" vertex="1">
          <mxGeometry x="417" y="50" width="123" height="25" as="geometry" />
        </mxCell>
        <mxCell id="PqDsPl_Uixphd_8dTkpM-7" value="" style="whiteSpace=wrap;html=1;rounded=0;shadow=0;labelBackgroundColor=none;strokeWidth=1;fillColor=none;fontFamily=Verdana;fontSize=12;align=center;comic=1;" parent="PqDsPl_Uixphd_8dTkpM-1" vertex="1">
          <mxGeometry x="30" y="230" width="200" height="590" as="geometry" />
        </mxCell>
        <mxCell id="PqDsPl_Uixphd_8dTkpM-8" value="NAV" style="text;html=1;points=[];align=left;verticalAlign=top;spacingTop=-4;fontSize=14;fontFamily=Verdana" parent="PqDsPl_Uixphd_8dTkpM-1" vertex="1">
          <mxGeometry x="50" y="130" width="60" height="20" as="geometry" />
        </mxCell>
        <mxCell id="PqDsPl_Uixphd_8dTkpM-9" value="bibliothÃ¨que" style="text;html=1;points=[];align=left;verticalAlign=top;spacingTop=-4;fontSize=14;fontFamily=Verdana" parent="PqDsPl_Uixphd_8dTkpM-1" vertex="1">
          <mxGeometry x="330" y="130" width="100" height="20" as="geometry" />
        </mxCell>
        <mxCell id="PqDsPl_Uixphd_8dTkpM-10" value="sheet" style="text;html=1;points=[];align=left;verticalAlign=top;spacingTop=-4;fontSize=14;fontFamily=Verdana" parent="PqDsPl_Uixphd_8dTkpM-1" vertex="1">
          <mxGeometry x="448.5" y="130" width="60" height="20" as="geometry" />
        </mxCell>
        <mxCell id="PqDsPl_Uixphd_8dTkpM-11" value="profil" style="text;html=1;points=[];align=left;verticalAlign=top;spacingTop=-4;fontSize=14;fontFamily=Verdana" parent="PqDsPl_Uixphd_8dTkpM-1" vertex="1">
          <mxGeometry x="840" y="130" width="60" height="20" as="geometry" />
        </mxCell>
        <mxCell id="PqDsPl_Uixphd_8dTkpM-12" value="" style="verticalLabelPosition=bottom;shadow=0;dashed=0;align=center;html=1;verticalAlign=top;strokeWidth=1;shape=mxgraph.mockup.graphics.simpleIcon;strokeColor=#999999;rounded=0;labelBackgroundColor=none;fontFamily=Verdana;fontSize=14;fontColor=#000000;comic=1;" parent="PqDsPl_Uixphd_8dTkpM-1" vertex="1">
          <mxGeometry x="250" y="230" width="580" height="590" as="geometry" />
        </mxCell>
        <mxCell id="PqDsPl_Uixphd_8dTkpM-13" value="" style="whiteSpace=wrap;html=1;rounded=0;shadow=0;labelBackgroundColor=none;strokeWidth=1;fillColor=none;fontFamily=Verdana;fontSize=12;align=center;comic=1;" parent="PqDsPl_Uixphd_8dTkpM-1" vertex="1">
          <mxGeometry x="840" y="230" width="230" height="590" as="geometry" />
        </mxCell>
        <mxCell id="PqDsPl_Uixphd_8dTkpM-14" value="Section 1" style="text;html=1;points=[];align=left;verticalAlign=top;spacingTop=-4;fontSize=14;fontFamily=Verdana" parent="PqDsPl_Uixphd_8dTkpM-1" vertex="1">
          <mxGeometry x="40" y="250" width="170" height="20" as="geometry" />
        </mxCell>
        <mxCell id="PqDsPl_Uixphd_8dTkpM-15" value="Section 2" style="text;html=1;points=[];align=left;verticalAlign=top;spacingTop=-4;fontSize=14;fontFamily=Verdana" parent="PqDsPl_Uixphd_8dTkpM-1" vertex="1">
          <mxGeometry x="40" y="286" width="170" height="20" as="geometry" />
        </mxCell>
        <mxCell id="PqDsPl_Uixphd_8dTkpM-16" value="Section 3" style="text;html=1;points=[];align=left;verticalAlign=top;spacingTop=-4;fontSize=14;fontFamily=Verdana" parent="PqDsPl_Uixphd_8dTkpM-1" vertex="1">
          <mxGeometry x="40" y="321" width="170" height="20" as="geometry" />
        </mxCell>
        <mxCell id="PqDsPl_Uixphd_8dTkpM-17" value="Section 4" style="text;html=1;points=[];align=left;verticalAlign=top;spacingTop=-4;fontSize=14;fontFamily=Verdana" parent="PqDsPl_Uixphd_8dTkpM-1" vertex="1">
          <mxGeometry x="40" y="357" width="170" height="20" as="geometry" />
        </mxCell>
        <mxCell id="PqDsPl_Uixphd_8dTkpM-18" value="Section 7" style="text;html=1;points=[];align=left;verticalAlign=top;spacingTop=-4;fontSize=14;fontFamily=Verdana" parent="PqDsPl_Uixphd_8dTkpM-1" vertex="1">
          <mxGeometry x="40" y="464" width="170" height="20" as="geometry" />
        </mxCell>
        <mxCell id="PqDsPl_Uixphd_8dTkpM-19" value="Section 8" style="text;html=1;points=[];align=left;verticalAlign=top;spacingTop=-4;fontSize=14;fontFamily=Verdana" parent="PqDsPl_Uixphd_8dTkpM-1" vertex="1">
          <mxGeometry x="40" y="500" width="170" height="20" as="geometry" />
        </mxCell>
        <mxCell id="PqDsPl_Uixphd_8dTkpM-20" value="Section 9" style="text;html=1;points=[];align=left;verticalAlign=top;spacingTop=-4;fontSize=14;fontFamily=Verdana" parent="PqDsPl_Uixphd_8dTkpM-1" vertex="1">
          <mxGeometry x="40" y="536" width="170" height="20" as="geometry" />
        </mxCell>
        <mxCell id="PqDsPl_Uixphd_8dTkpM-21" value="Section 10" style="text;html=1;points=[];align=left;verticalAlign=top;spacingTop=-4;fontSize=14;fontFamily=Verdana" parent="PqDsPl_Uixphd_8dTkpM-1" vertex="1">
          <mxGeometry x="40" y="571" width="170" height="20" as="geometry" />
        </mxCell>
        <mxCell id="PqDsPl_Uixphd_8dTkpM-22" value="Section 11" style="text;html=1;points=[];align=left;verticalAlign=top;spacingTop=-4;fontSize=14;fontFamily=Verdana" parent="PqDsPl_Uixphd_8dTkpM-1" vertex="1">
          <mxGeometry x="40" y="607" width="170" height="20" as="geometry" />
        </mxCell>
        <mxCell id="PqDsPl_Uixphd_8dTkpM-23" value="Section 12" style="text;html=1;points=[];align=left;verticalAlign=top;spacingTop=-4;fontSize=14;fontFamily=Verdana" parent="PqDsPl_Uixphd_8dTkpM-1" vertex="1">
          <mxGeometry x="40" y="643" width="170" height="20" as="geometry" />
        </mxCell>
        <mxCell id="PqDsPl_Uixphd_8dTkpM-24" value="Section 13" style="text;html=1;points=[];align=left;verticalAlign=top;spacingTop=-4;fontSize=14;fontFamily=Verdana" parent="PqDsPl_Uixphd_8dTkpM-1" vertex="1">
          <mxGeometry x="40" y="679" width="170" height="20" as="geometry" />
        </mxCell>
        <mxCell id="PqDsPl_Uixphd_8dTkpM-25" value="Section 14" style="text;html=1;points=[];align=left;verticalAlign=top;spacingTop=-4;fontSize=14;fontFamily=Verdana" parent="PqDsPl_Uixphd_8dTkpM-1" vertex="1">
          <mxGeometry x="40" y="714" width="170" height="20" as="geometry" />
        </mxCell>
        <mxCell id="PqDsPl_Uixphd_8dTkpM-26" value="Section 5" style="text;html=1;points=[];align=left;verticalAlign=top;spacingTop=-4;fontSize=14;fontFamily=Verdana" parent="PqDsPl_Uixphd_8dTkpM-1" vertex="1">
          <mxGeometry x="40" y="393" width="170" height="20" as="geometry" />
        </mxCell>
        <mxCell id="PqDsPl_Uixphd_8dTkpM-27" value="Section 6" style="text;html=1;points=[];align=left;verticalAlign=top;spacingTop=-4;fontSize=14;fontFamily=Verdana" parent="PqDsPl_Uixphd_8dTkpM-1" vertex="1">
          <mxGeometry x="40" y="429" width="170" height="20" as="geometry" />
        </mxCell>
        <mxCell id="PqDsPl_Uixphd_8dTkpM-28" value="Section 15" style="text;html=1;points=[];align=left;verticalAlign=top;spacingTop=-4;fontSize=14;fontFamily=Verdana" parent="PqDsPl_Uixphd_8dTkpM-1" vertex="1">
          <mxGeometry x="40" y="750" width="170" height="20" as="geometry" />
        </mxCell>
        <mxCell id="PqDsPl_Uixphd_8dTkpM-29" value="Feature 1" style="text;html=1;points=[];align=left;verticalAlign=top;spacingTop=-4;fontSize=14;fontFamily=Verdana" parent="PqDsPl_Uixphd_8dTkpM-1" vertex="1">
          <mxGeometry x="860" y="250" width="170" height="20" as="geometry" />
        </mxCell>
        <mxCell id="PqDsPl_Uixphd_8dTkpM-30" value="Feature 2" style="text;html=1;points=[];align=left;verticalAlign=top;spacingTop=-4;fontSize=14;fontFamily=Verdana" parent="PqDsPl_Uixphd_8dTkpM-1" vertex="1">
          <mxGeometry x="860" y="285" width="170" height="20" as="geometry" />
        </mxCell>
        <mxCell id="PqDsPl_Uixphd_8dTkpM-31" value="Feature 3" style="text;html=1;points=[];align=left;verticalAlign=top;spacingTop=-4;fontSize=14;fontFamily=Verdana" parent="PqDsPl_Uixphd_8dTkpM-1" vertex="1">
          <mxGeometry x="860" y="320" width="170" height="20" as="geometry" />
        </mxCell>
        <mxCell id="PqDsPl_Uixphd_8dTkpM-32" value="Feature 4" style="text;html=1;points=[];align=left;verticalAlign=top;spacingTop=-4;fontSize=14;fontFamily=Verdana" parent="PqDsPl_Uixphd_8dTkpM-1" vertex="1">
          <mxGeometry x="860" y="355" width="170" height="20" as="geometry" />
        </mxCell>
        <mxCell id="PqDsPl_Uixphd_8dTkpM-33" value="Feature 5" style="text;html=1;points=[];align=left;verticalAlign=top;spacingTop=-4;fontSize=14;fontFamily=Verdana" parent="PqDsPl_Uixphd_8dTkpM-1" vertex="1">
          <mxGeometry x="860" y="390" width="170" height="20" as="geometry" />
        </mxCell>
        <mxCell id="PqDsPl_Uixphd_8dTkpM-34" value="Feature 6" style="text;html=1;points=[];align=left;verticalAlign=top;spacingTop=-4;fontSize=14;fontFamily=Verdana" parent="PqDsPl_Uixphd_8dTkpM-1" vertex="1">
          <mxGeometry x="860" y="425" width="170" height="20" as="geometry" />
        </mxCell>
        <mxCell id="PqDsPl_Uixphd_8dTkpM-35" value="connection" style="text;html=1;points=[];align=left;verticalAlign=top;spacingTop=-4;fontSize=14;fontFamily=Verdana" parent="PqDsPl_Uixphd_8dTkpM-1" vertex="1">
          <mxGeometry x="545" y="130" width="90" height="20" as="geometry" />
        </mxCell>
        <mxCell id="PqDsPl_Uixphd_8dTkpM-36" value="inscription" style="text;html=1;points=[];align=left;verticalAlign=top;spacingTop=-4;fontSize=14;fontFamily=Verdana" parent="PqDsPl_Uixphd_8dTkpM-1" vertex="1">
          <mxGeometry x="650" y="130" width="90" height="20" as="geometry" />
        </mxCell>
        <mxCell id="PqDsPl_Uixphd_8dTkpM-37" value="" style="edgeStyle=orthogonalEdgeStyle;rounded=0;orthogonalLoop=1;jettySize=auto;html=1;" parent="PqDsPl_Uixphd_8dTkpM-1" source="PqDsPl_Uixphd_8dTkpM-38" target="PqDsPl_Uixphd_8dTkpM-39" edge="1">
          <mxGeometry relative="1" as="geometry" />
        </mxCell>
        <mxCell id="PqDsPl_Uixphd_8dTkpM-38" value="" style="rounded=0;whiteSpace=wrap;html=1;fillColor=none;" parent="PqDsPl_Uixphd_8dTkpM-1" vertex="1">
          <mxGeometry x="530" y="120" width="210" height="40" as="geometry" />
        </mxCell>
        <mxCell id="PqDsPl_Uixphd_8dTkpM-39" value="" style="rounded=0;whiteSpace=wrap;html=1;fillColor=none;" parent="PqDsPl_Uixphd_8dTkpM-1" vertex="1">
          <mxGeometry x="820" y="120" width="210" height="40" as="geometry" />
        </mxCell>
        <mxCell id="PqDsPl_Uixphd_8dTkpM-40" value="logout" style="text;html=1;points=[];align=left;verticalAlign=top;spacingTop=-4;fontSize=14;fontFamily=Verdana" parent="PqDsPl_Uixphd_8dTkpM-1" vertex="1">
          <mxGeometry x="925" y="130" width="60" height="20" as="geometry" />
        </mxCell>
        <mxCell id="PqDsPl_Uixphd_8dTkpM-41" value="HOME DESKTOP" style="rounded=0;whiteSpace=wrap;html=1;" parent="PqDsPl_Uixphd_8dTkpM-1" vertex="1">
          <mxGeometry x="980" width="120" height="40" as="geometry" />
        </mxCell>
      </root>
    </mxGraphModel>
  </diagram>
</mxfile>
